{
  "accessors": [
    {
      "bufferView": 2,
      "componentType": 5126,
      "count": 444,
      "max": [
        390.73272705078125,
        -0.23478169739246368,
        463.744384765625
      ],
      "min": [
        -228.59501647949219,
        -112.63516998291016,
        -333.71469116210938
      ],
      "type": "VEC3"
    },
    {
      "bufferView": 2,
      "byteOffset": 5328,
      "componentType": 5126,
      "count": 444,
      "max": [
        0.80000001192092896,
        0.80716031789779663,
        0.80716031789779663
      ],
      "min": [
        -0.80000001192092896,
        -0.80716031789779663,
        -0.80716031789779663
      ],
      "type": "VEC3"
    },
    {
      "bufferView": 3,
      "componentType": 5126,
      "count": 444,
      "max": [
        1,
        1,
        1,
        1
      ],
      "min": [
        -1,
        -1,
        -1,
        1
      ],
      "type": "VEC4"
    },
    {
      "bufferView": 1,
      "componentType": 5126,
      "count": 444,
      "max": [
        0.9811699390411377,
        0.99201500415802002
      ],
      "min": [
        0.015977200120687485,
        -0.0014038367662578821
      ],
      "type": "VEC2"
    },
    {
      "bufferView": 0,
      "componentType": 5125,
      "count": 666,
      "max": [
        443
      ],
      "min": [
        0
      ],
      "type": "SCALAR"
    },
    {
      "bufferView": 2,
      "byteOffset": 10656,
      "componentType": 5126,
      "count": 636,
      "max": [
        288.28839111328125,
        -0.50451076030731201,
        192.53031921386719
      ],
      "min": [
        -245.87882995605469,
        -524.557861328125,
        -358.9466552734375
      ],
      "type": "VEC3"
    },
    {
      "bufferView": 2,
      "byteOffset": 18288,
      "componentType": 5126,
      "count": 636,
      "max": [
        0.80000001192092896,
        0.80716031789779663,
        0.80716031789779663
      ],
      "min": [
        -0.80000001192092896,
        -0.80716031789779663,
        -0.80716031789779663
      ],
      "type": "VEC3"
    },
    {
      "bufferView": 3,
      "byteOffset": 7104,
      "componentType": 5126,
      "count": 636,
      "max": [
        1,
        1,
        1,
        1
      ],
      "min": [
        -1,
        -0.9999995231628418,
        -1,
        -1
      ],
      "type": "VEC4"
    },
    {
      "bufferView": 1,
      "byteOffset": 3552,
      "componentType": 5126,
      "count": 636,
      "max": [
        1.3846009969711304,
        0.99843001365661621
      ],
      "min": [
        -0.23718899488449097,
        0.00046999999904073775
      ],
      "type": "VEC2"
    },
    {
      "bufferView": 0,
      "byteOffset": 2664,
      "componentType": 5125,
      "count": 1008,
      "max": [
        635
      ],
      "min": [
        0
      ],
      "type": "SCALAR"
    },
    {
      "bufferView": 2,
      "byteOffset": 25920,
      "componentType": 5126,
      "count": 352,
      "max": [
        348.27215576171875,
        0.48775756359100342,
        324.90390014648438
      ],
      "min": [
        -72.252639770507812,
        -111.3134765625,
        -313.47085571289062
      ],
      "type": "VEC3"
    },
    {
      "bufferView": 2,
      "byteOffset": 30144,
      "componentType": 5126,
      "count": 352,
      "max": [
        0.80000001192092896,
        0.80716031789779663,
        0.80716031789779663
      ],
      "min": [
        -0.80000001192092896,
        -0.80716031789779663,
        -0.80716031789779663
      ],
      "type": "VEC3"
    },
    {
      "bufferView": 3,
      "byteOffset": 17280,
      "componentType": 5126,
      "count": 352,
      "max": [
        1,
        1,
        1,
        1
      ],
      "min": [
        -1,
        -1,
        -1,
        -1
      ],
      "type": "VEC4"
    },
    {
      "bufferView": 1,
      "byteOffset": 8640,
      "componentType": 5126,
      "count": 352,
      "max": [
        0.92315000295639038,
        0.53758800029754639
      ],
      "min": [
        0.67544299364089966,
        0.00019700000120792538
      ],
      "type": "VEC2"
    },
    {
      "bufferView": 0,
      "byteOffset": 6696,
      "componentType": 5125,
      "count": 558,
      "max": [
        351
      ],
      "min": [
        0
      ],
      "type": "SCALAR"
    },
    {
      "bufferView": 4,
      "componentType": 5126,
      "count": 1,
      "max": [
        1,
        0,
        0,
        0,
        0,
        1,
        0,
        0,
        0,
        0,
        1,
        0,
        0,
        0,
        0,
        1
      ],
      "min": [
        1,
        0,
        0,
        0,
        0,
        1,
        0,
        0,
        0,
        0,
        1,
        0,
        0,
        0,
        0,
        1
      ],
      "type": "MAT4"
    }
  ],
  "asset": {
    "extras": {
      "author": "BytesCrafter (https://sketchfab.com/BytesCrafter)",
      "license": "CC-BY-4.0 (http://creativecommons.org/licenses/by/4.0/)",
      "source": "https://sketchfab.com/models/023d284279e642769edd84f1ee80a0b2",
      "title": "Farm House"
    },
    "generator": "Sketchfab-3.18.7",
    "version": "2.0"
  },
  "bufferViews": [
    {
      "buffer": 0,
      "byteLength": 8928,
      "byteOffset": 0,
      "name": "floatBufferViews",
      "target": 34963
    },
    {
      "buffer": 0,
      "byteLength": 11456,
      "byteOffset": 8928,
      "byteStride": 8,
      "name": "floatBufferViews",
      "target": 34962
    },
    {
      "buffer": 0,
      "byteLength": 34368,
      "byteOffset": 20384,
      "byteStride": 12,
      "name": "floatBufferViews",
      "target": 34962
    },
    {
      "buffer": 0,
      "byteLength": 22912,
      "byteOffset": 54752,
      "byteStride": 16,
      "name": "floatBufferViews",
      "target": 34962
    },
    {
      "buffer": 0,
      "byteLength": 64,
      "byteOffset": 77664,
      "byteStride": 64,
      "name": "floatBufferViews"
    }
  ],
  "buffers": [
    {
      "byteLength": 77728,
      "uri": "scene.bin"
    }
  ],
  "images": [
    {
      "uri": "textures/01_-_Default_0_baseColor.png"
    },
    {
      "uri": "textures/01_-_Default_baseColor.png"
    },
    {
      "uri": "textures/material_baseColor.png"
    }
  ],
  "materials": [
    {
      "doubleSided": true,
      "emissiveFactor": [
        0,
        0,
        0
      ],
      "name": "material",
      "pbrMetallicRoughness": {
        "baseColorFactor": [
          1,
          1,
          1,
          1
        ],
        "baseColorTexture": {
          "index": 2,
          "texCoord": 0
        },
        "metallicFactor": 0,
        "roughnessFactor": 0.59999999999999998
      }
    },
    {
      "doubleSided": true,
      "emissiveFactor": [
        0,
        0,
        0
      ],
      "name": "01_-_Default",
      "pbrMetallicRoughness": {
        "baseColorFactor": [
          1,
          1,
          1,
          1
        ],
        "baseColorTexture": {
          "index": 1,
          "texCoord": 0
        },
        "metallicFactor": 0,
        "roughnessFactor": 0.59999999999999998
      }
    },
    {
      "doubleSided": true,
      "emissiveFactor": [
        0,
        0,
        0
      ],
      "name": "01_-_Default_0",
      "pbrMetallicRoughness": {
        "baseColorFactor": [
          1,
          1,
          1,
          1
        ],
        "baseColorTexture": {
          "index": 0,
          "texCoord": 0
        },
        "metallicFactor": 0,
        "roughnessFactor": 0.59999999999999998
      }
    }
  ],
  "meshes": [
    {
      "primitives": [
        {
          "attributes": {
            "NORMAL": 1,
            "POSITION": 0,
            "TANGENT": 2,
            "TEXCOORD_0": 3
          },
          "indices": 4,
          "material": 0,
          "mode": 4
        }
      ]
    },
    {
      "primitives": [
        {
          "attributes": {
            "NORMAL": 6,
            "POSITION": 5,
            "TANGENT": 7,
            "TEXCOORD_0": 8
          },
          "indices": 9,
          "material": 1,
          "mode": 4
        }
      ]
    },
    {
      "primitives": [
        {
          "attributes": {
            "NORMAL": 11,
            "POSITION": 10,
            "TANGENT": 12,
            "TEXCOORD_0": 13
          },
          "indices": 14,
          "material": 2,
          "mode": 4
        }
      ]
    }
  ],
  "nodes": [
    {
      "children": [
        1
      ],
      "name": "RootNode (gltf orientation matrix)",
      "rotation": [
        -0.70710678118654746,
        -0,
        -0,
        0.70710678118654757
      ]
    },
    {
      "children": [
        2
      ],
      "name": "RootNode (model correction matrix)"
    },
    {
      "children": [
        3
      ],
      "matrix": [
        1,
        0,
        0,
        0,
        0,
        0,
        1,
        0,
        0,
        -1,
        0,
        0,
        0,
        0,
        0,
        1
      ],
      "name": "bf58316a63b14c45aa9434f910bf339c.fbx"
    },
    {
      "children": [
        4
      ],
      "name": "RootNode"
    },
    {
      "children": [
        5
      ],
      "matrix": [
        1.25,
        0,
        0,
        0,
        0,
        2.7509356372751889e-16,
        -1.2389112710952759,
        0,
        0,
        1.2389112710952759,
        2.7509356372751889e-16,
        0,
        0,
        0,
        0,
        1
      ],
      "name": "Cottage 01"
    },
    {
      "children": [
        6
      ],
      "matrix": [
        1,
        0,
        0,
        0,
        0,
        1,
        -1.2325951644078312e-32,
        0,
        0,
        1.2325951644078312e-32,
        1,
        0,
        0,
        0,
        0,
        1
      ],
      "name": "Scene Root_root"
    },
    {
      "children": [
        7,
        8,
        10,
        12
      ],
      "name": ""
    },
    {
      "name": "_rootJoint"
    },
    {
      "children": [
        9
      ],
      "matrix": [
        0.99999994039535522,
        0,
        0,
        0,
        0,
        -4.3711383998317492e-08,
        -0.99999986773469374,
        0,
        0,
        0.99999986773469374,
        -4.3711383998317492e-08,
        0,
        0,
        0,
        0,
        1
      ],
      "name": ""
    },
    {
      "mesh": 0,
      "name": ""
    },
    {
      "children": [
        11
      ],
      "matrix": [
        0.99999994039535522,
        0,
        0,
        0,
        0,
        -4.3711383998317492e-08,
        -0.99999986773469374,
        0,
        0,
        0.99999986773469374,
        -4.3711383998317492e-08,
        0,
        0,
        0,
        0,
        1
      ],
      "name": ""
    },
    {
      "mesh": 1,
      "name": ""
    },
    {
      "children": [
        13
      ],
      "matrix": [
        0.99999994039535522,
        0,
        0,
        0,
        0,
        -4.3711383998317492e-08,
        -0.99999986773469374,
        0,
        0,
        0.99999986773469374,
        -4.3711383998317492e-08,
        0,
        0,
        0,
        0,
        1
      ],
      "name": ""
    },
    {
      "mesh": 2,
      "name": ""
    }
  ],
  "samplers": [
    {
      "magFilter": 9729,
      "minFilter": 9987,
      "wrapS": 10497,
      "wrapT": 10497
    }
  ],
  "scene": 0,
  "scenes": [
    {
      "name": "OSG_Scene",
      "nodes": [
        0
      ]
    }
  ],
  "skins": [
    {
      "inverseBindMatrices": 15,
      "joints": [
        7
      ],
      "skeleton": 7
    }
  ],
  "textures": [
    {
      "sampler": 0,
      "source": 0
    },
    {
      "sampler": 0,
      "source": 1
    },
    {
      "sampler": 0,
      "source": 2
    }
  ]
}

